<?xml version="1.0" encoding="utf-8"?>
<!-- Generator: Adobe Illustrator 24.0.1, SVG Export Plug-In . SVG Version: 6.00 Build 0)  -->
<svg version="1.1" id="up_1_" xmlns="http://www.w3.org/2000/svg" xmlns:xlink="http://www.w3.org/1999/xlink" x="0px" y="0px"
	 viewBox="0 0 100 100" style="enable-background:new 0 0 100 100;" xml:space="preserve">
<g>
	<polygon id="up" points="87.68,28.5 49.51,46.94 11.35,28.5 3.66,28.5 50,50.89 96.34,28.5 	"/>
	<g>
		<path d="M38.58,64.23l-2.23,0.24c-0.07-0.38-0.35-0.56-0.84-0.56c-0.29,0-0.51,0.05-0.66,0.16s-0.22,0.23-0.22,0.37
			c0,0.14,0.07,0.26,0.2,0.36s0.48,0.18,1.05,0.27c0.92,0.14,1.53,0.34,1.83,0.62s0.45,0.64,0.45,1.1c0,0.64-0.3,1.19-0.89,1.64
			s-1.5,0.68-2.71,0.68c-0.99,0-1.72-0.14-2.18-0.43s-0.73-0.77-0.81-1.43l2.36-0.21c0.1,0.5,0.43,0.76,1,0.76
			c0.26,0,0.49-0.06,0.69-0.17s0.3-0.28,0.3-0.49c0-0.19-0.07-0.32-0.22-0.39s-0.42-0.13-0.82-0.19c-0.93-0.14-1.55-0.36-1.88-0.66
			s-0.49-0.66-0.49-1.11c0-0.36,0.12-0.72,0.37-1.07S33.5,63.1,34,62.9s1.11-0.3,1.84-0.3c0.83,0,1.47,0.12,1.91,0.37
			S38.47,63.63,38.58,64.23z"/>
		<path d="M46.74,64.9l-2.16,0.12c-0.1-0.54-0.47-0.81-1.1-0.81c-0.58,0-1.03,0.24-1.34,0.71s-0.47,0.98-0.47,1.54
			c0,0.34,0.11,0.59,0.33,0.77s0.46,0.27,0.72,0.27c0.64,0,1.11-0.35,1.42-1.05l2.23,0.24c-0.55,1.62-1.8,2.43-3.74,2.43
			c-2.19,0-3.29-0.9-3.29-2.69c0-1.04,0.36-1.94,1.08-2.69s1.74-1.13,3.05-1.13c0.94,0,1.69,0.19,2.26,0.58S46.64,64.14,46.74,64.9z
			"/>
		<path d="M53.01,62.79l-0.88,1.84c-0.18-0.04-0.35-0.06-0.49-0.06c-0.46,0-0.83,0.16-1.11,0.49s-0.51,0.85-0.66,1.58l-0.49,2.33
			h-2.39l1.32-6.22h2.23l-0.28,1.22l0.02,0.02c0.37-0.55,0.7-0.92,0.98-1.11s0.59-0.28,0.93-0.28
			C52.44,62.6,52.72,62.66,53.01,62.79z"/>
		<path d="M56.7,62.6c1.11,0,1.92,0.28,2.43,0.84s0.76,1.22,0.76,1.97c0,0.57-0.15,1.16-0.44,1.75s-0.73,1.06-1.32,1.41
			s-1.31,0.52-2.17,0.52c-1.09,0-1.89-0.27-2.41-0.81s-0.78-1.21-0.78-2.01c0-0.63,0.16-1.24,0.47-1.82s0.76-1.04,1.35-1.37
			S55.88,62.6,56.7,62.6z M56.12,67.49c0.45,0,0.8-0.23,1.06-0.68s0.39-0.96,0.39-1.51c0-0.4-0.1-0.68-0.3-0.85
			s-0.42-0.24-0.66-0.24c-0.5,0-0.88,0.23-1.13,0.69s-0.38,0.92-0.38,1.4c0,0.34,0.1,0.63,0.3,0.86S55.83,67.49,56.12,67.49z"/>
		<path d="M64.72,60.37l-1.83,8.59h-2.4l1.83-8.59H64.72z"/>
		<path d="M68.71,60.37l-1.83,8.59h-2.4l1.83-8.59H68.71z"/>
	</g>
</g>
</svg>
